<svg width="96" height="96" viewBox="0 0 96 96" fill="none" xmlns="http://www.w3.org/2000/svg" role="img" aria-label="SecureVault logo">
  <defs>
    <linearGradient id="sv-shield" x1="48" y1="6" x2="48" y2="90" gradientUnits="userSpaceOnUse">
      <stop stop-color="#34D399"/>
      <stop offset="1" stop-color="#0EA5E9"/>
    </linearGradient>
    <linearGradient id="sv-dial" x1="30" y1="34" x2="66" y2="70" gradientUnits="userSpaceOnUse">
      <stop stop-color="#0B1120"/>
      <stop offset="1" stop-color="#1E293B"/>
    </linearGradient>
  </defs>
  <!-- shield -->
  <path d="M48 6 84 18v26c0 24-16 38-36 46C28 82 12 68 12 44V18L48 6Z" fill="url(#sv-shield)"/>
  <path d="M48 6 84 18v26c0 24-16 38-36 46C28 82 12 68 12 44V18L48 6Z" fill="none" stroke="#0B1120" stroke-opacity="0.18" stroke-width="2"/>
  <!-- vault dial -->
  <circle cx="48" cy="48" r="20" fill="url(#sv-dial)"/>
  <circle cx="48" cy="48" r="20" fill="none" stroke="#34D399" stroke-opacity="0.55" stroke-width="2"/>
  <circle cx="48" cy="48" r="7" fill="none" stroke="#34D399" stroke-width="3"/>
  <!-- dial spokes -->
  <g stroke="#34D399" stroke-width="3" stroke-linecap="round">
    <line x1="48" y1="24" x2="48" y2="31"/>
    <line x1="48" y1="65" x2="48" y2="72"/>
    <line x1="24" y1="48" x2="31" y2="48"/>
    <line x1="65" y1="48" x2="72" y2="48"/>
  </g>
</svg>
